# xmcd
#
# Track frame offsets:
#	150
#	9915
#	27268
#	50364
#	58417
#	71600
#	84009
#	108541
#	121594
#	132933
#	148283
#	163050
#	178718
#	190120
#	206251
#	218515
#	229629
#
# Disc length: 3300 seconds
#
# Revision: 0
# Processed by: cddbd v1.5.2PL0 Copyright (c) Steve Scherf et al.
# Submitted via: EasyCDDAExtractor 16.0.6.1
#
DISCID=e30ce211
DTITLE=Γιάννης Πάριος - Ο κύκλος του έρωτα Cd1
DYEAR=2012
DGENRE=Λαϊκά
TTITLE0=Εισαγωγή - Ορχήστρα (Γιάννης Πάριος Live)
TTITLE1=Έρωτας είναι θαρρώ (Γιάννης Πάριος Live)
TTITLE2=Είσαι εσύ ο ανθρωπός μου (Γιάννης Πάριος Live)
TTITLE3=Αγαπάω κι αδιαφορώ (Γιάννης Πάριος Live)
TTITLE4=Για πάντα μαζί (Γιάννης Πάριος Live)
TTITLE5=Έλα σε μένα (Γιάννης Πάριος Live)
TTITLE6=Πάτωμα (Γιάννης Πάριος Live)
TTITLE7=Αχ αγάπη (Γιάννης Πάριος Live)
TTITLE8=Τι σου΄κανα και πίνεις (Γιάννης Πάριος Live)
TTITLE9=Θυμάμαι (Nostalgias) (Γιάννης Πάριος Live)
TTITLE10=Δεν ξεχνιέσαι δεν ξεχνιέσαι (Γιάννης Πάριος Live)
TTITLE11=Έλα γι΄απόψε (Γιάννης Πάριος Live)
TTITLE12=Απόψε (Γιάννης Πάριος Live)
TTITLE13=Όλα για τον έρωτα (Γιάννης Πάριος Live)
TTITLE14=Ποια νύχτα σ΄έκλεψε (Γιάννης Πάριος Live)
TTITLE15=Τι θέλεις να κάνω (Γιάννης Πάριος Live)
TTITLE16=Αδιέξοδο (Γιάννης Πάριος Live)
EXTD=
EXTT0=
EXTT1=
EXTT2=
EXTT3=
EXTT4=
EXTT5=
EXTT6=
EXTT7=
EXTT8=
EXTT9=
EXTT10=
EXTT11=
EXTT12=
EXTT13=
EXTT14=
EXTT15=
EXTT16=
PLAYORDER=
